<svg width="2869" height="899" viewBox="0 0 2869 899" fill="none" xmlns="http://www.w3.org/2000/svg">
<path d="M1796.51 387.739C1775.57 451.281 1762.67 510.42 1749.28 575.951C1740.71 617.849 1730.82 659.592 1724.13 701.866C1829.62 699.057 1920.36 693.507 2028.61 694.68C2305.15 698.813 2580.87 725.544 2853.06 774.626C2846.41 779.292 2845.28 780.661 2837.07 781.855C2386.8 724.414 1931.84 712.941 1479.24 747.61C1341.9 757.447 1173.75 771.753 1037.15 793L1037 788.311C1053.68 786.322 1073.45 781.148 1090.19 777.768C1287.04 738.148 1482.34 718.623 1682.76 705.381C1698 644.758 1711.76 588.357 1725.73 527.114C1705.99 551.013 1622.5 645.995 1599.86 568.016C1580.08 499.899 1654.93 389.463 1728.04 390.06C1751.61 390.258 1768.02 395.895 1793.31 388.666L1796.51 387.739ZM1749.59 420.724C1731.53 414.821 1725.44 413.01 1705.73 413.914C1675.55 423.157 1676.3 430.254 1658.84 454.572C1643.37 476.13 1613.17 590.612 1672.09 559.814C1726.87 517.144 1734.66 484.509 1749.59 420.724Z" fill="#5E2744"></path>
<path d="M1286.39 299.611C1466.95 284.246 1424.56 565.493 1243.67 599.298C1214.09 600.581 1179.77 599.433 1156.45 579.732C1096.73 529.323 1122.34 415.729 1166.63 363.529C1200.56 323.533 1236.27 304.719 1286.39 299.611ZM1349.94 367.001C1338.04 326.32 1303.7 317.188 1265.41 321.367C1228.8 333.064 1210.05 351.235 1192.18 384.576C1158.33 447.764 1146.12 596.804 1259.26 574.65C1333.6 550.971 1370.7 437.972 1349.94 367.001Z" fill="#5E2744"></path>
<path d="M2384.68 268.37C2389.92 267.464 2389.59 267.354 2394.69 268.746C2403.14 285.335 2331.4 526.695 2339.47 559.637C2340.44 563.549 2341.21 563.061 2344.4 565.03C2357.95 562.84 2362.1 554.329 2376.76 550.107L2380.01 552.251C2380.3 555.921 2381.25 560.831 2377.89 563.483C2295.42 628.528 2295.16 595.274 2311.08 518.778C2295.64 539.492 2285.76 553.069 2266.79 570.666C2252.42 583.049 2232.59 598.437 2213.04 596.646C2181.78 593.793 2174.66 555.568 2178.73 529.964C2191.84 447.411 2247.27 381.524 2335.71 392.426C2340.81 374.539 2353.97 317.718 2352.88 300.936C2344.02 286.745 2330.24 302.173 2315.39 295.742L2313.9 291.541C2319.68 276.351 2367.92 271.708 2384.68 268.37ZM2329.27 420.151C2310.57 414.469 2302.34 412.653 2281.98 413.824C2213.95 439.826 2196.82 589.945 2249.57 561.491C2251.25 560.585 2252.93 559.635 2254.56 558.639C2304.53 517.65 2317.02 482.166 2329.27 420.151Z" fill="#5E2744"></path>
<path d="M2783.9 387.672C2794.2 395.063 2745.19 533.285 2754.32 563.529C2765.5 569.255 2773.88 554.22 2790.49 549.864L2793.96 551.942L2794.89 557.095C2788.17 575.643 2743.69 596.491 2724.43 596.227C2702.63 584.22 2718.37 541.042 2722.99 520.437C2714.63 531.093 2706.14 541.619 2697.47 552.031C2675.65 575.623 2613.57 631.646 2597.08 568.724C2578.91 499.454 2648.92 393.529 2722.64 391.319C2745.32 390.657 2759.56 393.931 2783.9 387.672ZM2745.38 419.067C2726.57 416.567 2714.1 414.932 2695.09 416.128C2654.85 434.124 2637.89 488.621 2633.65 529.767C2632.39 541.903 2634.62 555.569 2644.83 563.372C2653.15 565.805 2655.98 565.406 2663.56 561.119C2666.21 559.569 2668.82 557.979 2671.37 556.298C2719.81 514.976 2730.48 479.136 2745.38 419.067Z" fill="#5E2744"></path>
<path d="M1882.7 389.705L1892.4 391.43C1918.35 413.648 1857.81 529.898 1872.07 561.912C1880.18 569.34 1889.04 568.146 1897.53 561.978C1957.84 518.203 1969.09 462.886 1984.15 394.348C1995.05 393.508 2010.79 393.617 2022 393.419C2014.66 420.523 1981.41 540.045 1986.36 561.867L1990.63 564.475C1999.36 563.878 1999.85 563.061 2007.41 558.021L2014.64 551.587C2021.42 550.503 2018.11 550.15 2024.79 553.378L2025.54 557.8C2017.47 573.475 1982.23 597.509 1963.81 598.192C1938.6 587.359 1952.22 543.34 1955.78 520.789C1935.62 549.53 1900.15 591.672 1863.51 596.8C1782.55 608.141 1882.17 439.647 1855.53 420.922C1839.88 421.077 1837.24 437.636 1823.31 428.306L1823.43 424.681C1833.14 410.973 1866.81 394.28 1882.7 389.705Z" fill="#5E2744"></path>
<path d="M2516.34 389.906C2550.54 387.473 2582.07 405.624 2567.14 444.802C2552.44 483.38 2486.82 495.562 2449.92 510.111C2450.48 525.786 2452.2 545.972 2463.45 556.871C2498.52 590.897 2536.24 536.332 2555.63 538.057C2560.05 543.317 2558.77 540.246 2558.59 547.92C2530.18 573.874 2480.1 616.369 2438.4 590.679C2411.34 574.009 2408.69 533.812 2414.79 505.069C2425.96 452.516 2460.12 400.407 2516.34 389.906ZM2503.32 411.283C2474.86 426.671 2465.6 447.408 2457.02 477.964C2455.74 482.45 2454.63 486.984 2453.68 491.538C2461.04 489.174 2470.82 486.344 2477.85 483.624C2494.98 476.306 2539.13 454.992 2531.04 423.376C2529.01 415.439 2512.31 411.016 2503.32 411.283Z" fill="#5E2744"></path>
<path d="M1496.47 480.019C1509.3 460.298 1551.31 372.57 1589.89 393.419C1596.39 396.934 1599.61 407.039 1600.21 414.156C1601.13 425.078 1592.94 432.353 1586.18 440.179C1577.73 435.67 1568.19 431.291 1559.5 427.09C1529.24 443.453 1517.56 468.787 1500.39 497.64C1486.73 527.223 1480.08 560.188 1475.74 592.335L1435.48 595.541C1449.18 546.259 1462.75 481.701 1472.65 430.872C1473.83 424.837 1471.29 423.066 1468.11 420.148C1458.51 419.683 1448.05 426.848 1436.51 429.899L1434.06 427.753L1435.67 421.342C1449.17 406.683 1480.08 394.082 1499.35 389.482C1523.35 390.523 1499.89 464.898 1496.47 480.019Z" fill="#5E2744"></path>
<path d="M2122.24 391.628C2129.6 391.252 2130.33 391.605 2137.34 392.91C2138.74 394.282 2140.13 395.674 2141.52 397.066C2143.38 427.178 2102.03 545.397 2109.97 567.284C2114.75 567.571 2133.08 559.347 2141.12 557.094L2144.31 559.26C2138.78 578.097 2105.59 592.377 2087.97 598.481C2032.85 589.858 2119.15 450.328 2095.91 422.316C2087.6 420.259 2075.17 426.736 2066.64 430.099L2063.08 428.55C2063.96 410.112 2106.01 397.2 2122.24 391.628Z" fill="#5E2744"></path>
<path d="M2171.17 291.122C2183.11 295.366 2188.28 305.448 2195 315.661C2182.82 325.456 2137.5 352.939 2121.89 363.041C2113.56 367.773 2117.71 367.044 2109.33 367.044L2107.06 363.308C2111.41 349.002 2157.46 304.983 2171.17 291.122Z" fill="#5E2744"></path>
<path d="M2868.35 175.213C2868.35 184.297 2866.69 192.108 2863.37 198.644C2860.04 205.153 2855.49 210.167 2849.7 213.684C2843.94 217.174 2837.39 218.919 2830.05 218.919C2822.68 218.919 2816.1 217.174 2810.31 213.684C2804.55 210.167 2800.01 205.139 2796.69 198.603C2793.36 192.066 2791.7 184.27 2791.7 175.213C2791.7 166.128 2793.36 158.331 2796.69 151.822C2800.01 145.286 2804.55 140.273 2810.31 136.783C2816.1 133.265 2822.68 131.506 2830.05 131.506C2837.39 131.506 2843.94 133.265 2849.7 136.783C2855.49 140.273 2860.04 145.286 2863.37 151.822C2866.69 158.331 2868.35 166.128 2868.35 175.213ZM2855.64 175.213C2855.64 168.288 2854.52 162.458 2852.28 157.722C2850.06 152.958 2847.01 149.357 2843.13 146.92C2839.29 144.455 2834.92 143.222 2830.05 143.222C2825.15 143.222 2820.77 144.455 2816.92 146.92C2813.07 149.357 2810.02 152.958 2807.78 157.722C2805.56 162.458 2804.46 168.288 2804.46 175.213C2804.46 182.137 2805.56 187.981 2807.78 192.745C2810.02 197.481 2813.07 201.082 2816.92 203.547C2820.77 205.984 2825.15 207.203 2830.05 207.203C2834.92 207.203 2839.29 205.984 2843.13 203.547C2847.01 201.082 2850.06 197.481 2852.28 192.745C2854.52 187.981 2855.64 182.137 2855.64 175.213Z" fill="#747474"></path>
<path d="M2782.59 160.339H2769.63C2769.13 157.569 2768.2 155.132 2766.84 153.027C2765.49 150.922 2763.83 149.136 2761.86 147.668C2759.89 146.2 2757.69 145.092 2755.25 144.344C2752.84 143.596 2750.28 143.222 2747.57 143.222C2742.67 143.222 2738.28 144.455 2734.4 146.92C2730.55 149.385 2727.5 152.999 2725.26 157.763C2723.04 162.527 2721.93 168.344 2721.93 175.213C2721.93 182.137 2723.04 187.981 2725.26 192.745C2727.5 197.509 2730.56 201.11 2734.44 203.547C2738.32 205.984 2742.68 207.203 2747.53 207.203C2750.21 207.203 2752.76 206.843 2755.17 206.123C2757.61 205.375 2759.81 204.281 2761.78 202.841C2763.74 201.4 2765.4 199.642 2766.76 197.564C2768.15 195.459 2769.1 193.05 2769.63 190.335L2782.59 190.377C2781.9 194.559 2780.55 198.409 2778.56 201.927C2776.59 205.416 2774.06 208.435 2770.96 210.984C2767.88 213.504 2764.37 215.457 2760.41 216.842C2756.44 218.226 2752.12 218.919 2747.44 218.919C2740.08 218.919 2733.51 217.174 2727.75 213.684C2721.99 210.167 2717.45 205.139 2714.12 198.603C2710.83 192.066 2709.18 184.27 2709.18 175.213C2709.18 166.128 2710.84 158.331 2714.16 151.822C2717.49 145.286 2722.03 140.273 2727.79 136.783C2733.55 133.265 2740.1 131.506 2747.44 131.506C2751.96 131.506 2756.17 132.157 2760.07 133.459C2764.01 134.733 2767.54 136.616 2770.67 139.109C2773.8 141.574 2776.39 144.593 2778.44 148.166C2780.49 151.711 2781.87 155.769 2782.59 160.339Z" fill="#747474"></path>
<path d="M2696.74 132.668V217.754H2683.9V132.668H2696.74Z" fill="#747474"></path>
<path d="M2612 217.754V132.668H2642.33C2648.92 132.668 2654.39 133.804 2658.74 136.075C2663.12 138.346 2666.39 141.49 2668.55 145.506C2670.71 149.494 2671.79 154.106 2671.79 159.34C2671.79 164.547 2670.69 169.131 2668.51 173.092C2666.35 177.025 2663.08 180.086 2658.7 182.274C2654.35 184.462 2648.88 185.556 2642.29 185.556H2619.32V174.505H2641.13C2645.28 174.505 2648.66 173.909 2651.26 172.718C2653.9 171.527 2655.82 169.796 2657.04 167.525C2658.26 165.254 2658.87 162.526 2658.87 159.34C2658.87 156.128 2658.24 153.344 2657 150.99C2655.78 148.635 2653.85 146.835 2651.22 145.589C2648.62 144.315 2645.2 143.678 2640.96 143.678H2624.84V217.754H2612ZM2654.01 179.366L2675.03 217.754H2660.4L2639.8 179.366H2654.01Z" fill="#747474"></path>
<path d="M2535.11 143.719V132.668H2600.96V143.719H2574.41V217.754H2561.62V143.719H2535.11Z" fill="#747474"></path>
<path d="M2478.14 217.755H2464.51L2495.13 132.67H2509.96L2540.58 217.755H2526.96L2502.9 148.125H2502.24L2478.14 217.755ZM2480.42 184.436H2524.63V195.238H2480.42V184.436ZM2497.42 124.153L2507.14 105H2520.23L2507.35 124.153H2497.42Z" fill="#747474"></path>
<path d="M2455.77 132.668V217.754H2442.93V132.668H2455.77Z" fill="#747474"></path>
<path d="M2371.03 217.754V132.668H2401.36C2407.95 132.668 2413.42 133.804 2417.77 136.075C2422.15 138.346 2425.42 141.49 2427.58 145.506C2429.74 149.494 2430.82 154.106 2430.82 159.34C2430.82 164.547 2429.72 169.131 2427.54 173.092C2425.38 177.025 2422.11 180.086 2417.73 182.274C2413.38 184.462 2407.91 185.556 2401.32 185.556H2378.35V174.505H2400.16C2404.31 174.505 2407.69 173.909 2410.29 172.718C2412.93 171.527 2414.85 169.796 2416.07 167.525C2417.29 165.254 2417.9 162.526 2417.9 159.34C2417.9 156.128 2417.27 153.344 2416.03 150.99C2414.81 148.635 2412.88 146.835 2410.25 145.589C2407.65 144.315 2404.23 143.678 2399.99 143.678H2383.87V217.754H2371.03ZM2413.04 179.366L2434.06 217.754H2419.43L2398.83 179.366H2413.04Z" fill="#747474"></path>
<path d="M2304.05 217.754V132.668H2357.4V143.719H2316.89V169.644H2354.61V180.653H2316.89V206.703H2357.89V217.754H2304.05Z" fill="#747474"></path>
<path d="M2277.51 159.55C2276.71 157.029 2275.63 154.772 2274.27 152.778C2272.94 150.756 2271.35 149.039 2269.49 147.626C2267.64 146.186 2265.52 145.092 2263.14 144.344C2260.78 143.596 2258.19 143.222 2255.37 143.222C2250.58 143.222 2246.26 144.455 2242.41 146.92C2238.56 149.385 2235.51 152.999 2233.27 157.763C2231.05 162.5 2229.94 168.302 2229.94 175.171C2229.94 182.068 2231.06 187.898 2233.31 192.662C2235.55 197.426 2238.62 201.04 2242.53 203.505C2246.44 205.97 2250.88 207.203 2255.87 207.203C2260.49 207.203 2264.52 206.261 2267.96 204.378C2271.42 202.494 2274.09 199.835 2275.97 196.401C2277.89 192.939 2278.84 188.867 2278.84 184.187L2282.17 184.81H2257.82V174.215H2291.26V183.896C2291.26 191.042 2289.74 197.246 2286.69 202.508C2283.67 207.743 2279.49 211.787 2274.15 214.64C2268.83 217.492 2262.74 218.919 2255.87 218.919C2248.17 218.919 2241.41 217.146 2235.59 213.601C2229.8 210.056 2225.29 205.029 2222.05 198.52C2218.81 191.983 2217.19 184.228 2217.19 175.254C2217.19 168.468 2218.13 162.375 2220.01 156.974C2221.9 151.573 2224.54 146.989 2227.95 143.222C2231.38 139.428 2235.41 136.533 2240.04 134.539C2244.69 132.517 2249.77 131.506 2255.28 131.506C2259.88 131.506 2264.16 132.185 2268.12 133.542C2272.11 134.899 2275.66 136.824 2278.76 139.317C2281.89 141.81 2284.48 144.773 2286.53 148.208C2288.58 151.615 2289.96 155.395 2290.68 159.55H2277.51Z" fill="#747474"></path>
<path d="M2179.98 175.213C2179.98 184.297 2178.32 192.108 2175 198.644C2171.67 205.153 2167.12 210.167 2161.33 213.684C2155.57 217.174 2149.02 218.919 2141.68 218.919C2134.31 218.919 2127.73 217.174 2121.94 213.684C2116.18 210.167 2111.64 205.139 2108.31 198.603C2104.99 192.066 2103.33 184.27 2103.33 175.213C2103.33 166.128 2104.99 158.331 2108.31 151.822C2111.64 145.286 2116.18 140.273 2121.94 136.783C2127.73 133.265 2134.31 131.506 2141.68 131.506C2149.02 131.506 2155.57 133.265 2161.33 136.783C2167.12 140.273 2171.67 145.286 2175 151.822C2178.32 158.331 2179.98 166.128 2179.98 175.213ZM2167.27 175.213C2167.27 168.288 2166.15 162.458 2163.9 157.722C2161.69 152.958 2158.64 149.357 2154.76 146.92C2150.91 144.455 2146.55 143.222 2141.68 143.222C2136.77 143.222 2132.4 144.455 2128.55 146.92C2124.7 149.357 2121.65 152.958 2119.41 157.722C2117.19 162.458 2116.08 168.288 2116.08 175.213C2116.08 182.137 2117.19 187.981 2119.41 192.745C2121.65 197.481 2124.7 201.082 2128.55 203.547C2132.4 205.984 2136.77 207.203 2141.68 207.203C2146.55 207.203 2150.91 205.984 2154.76 203.547C2158.64 201.082 2161.69 197.481 2163.9 192.745C2166.15 187.981 2167.27 182.137 2167.27 175.213Z" fill="#747474"></path>
<path d="M2034.17 217.754V132.668H2064.5C2071.1 132.668 2076.57 133.804 2080.91 136.075C2085.29 138.346 2088.56 141.49 2090.72 145.506C2092.88 149.494 2093.96 154.106 2093.96 159.34C2093.96 164.547 2092.87 169.131 2090.68 173.092C2088.52 177.025 2085.25 180.086 2080.87 182.274C2076.52 184.462 2071.05 185.556 2064.46 185.556H2041.49V174.505H2063.3C2067.45 174.505 2070.83 173.909 2073.44 172.718C2076.07 171.527 2077.99 169.796 2079.21 167.525C2080.43 165.254 2081.04 162.526 2081.04 159.34C2081.04 156.128 2080.42 153.344 2079.17 150.99C2077.95 148.635 2076.03 146.835 2073.39 145.589C2070.79 144.315 2067.37 143.678 2063.13 143.678H2047.01V217.754H2034.17ZM2076.18 179.366L2097.2 217.754H2082.58L2061.97 179.366H2076.18Z" fill="#747474"></path>
<path d="M1957.28 143.719V132.668H2023.13V143.719H1996.59V217.754H1983.79V143.719H1957.28Z" fill="#747474"></path>
<path d="M1946.26 132.668V217.754H1934.46L1891.21 155.352H1890.42V217.754H1877.59V132.668H1889.47L1932.76 195.153H1933.55V132.668H1946.26Z" fill="#747474"></path>
<path d="M1810.6 217.754V132.668H1863.95V143.719H1823.44V169.644H1861.17V180.653H1823.44V206.703H1864.45V217.754H1810.6Z" fill="#747474"></path>
<path d="M1798.75 160.339H1785.79C1785.29 157.569 1784.36 155.132 1783.01 153.027C1781.65 150.922 1779.99 149.136 1778.02 147.668C1776.06 146.2 1773.85 145.092 1771.42 144.344C1769.01 143.596 1766.44 143.222 1763.73 143.222C1758.83 143.222 1754.44 144.455 1750.56 146.92C1746.71 149.385 1743.66 152.999 1741.42 157.763C1739.2 162.527 1738.1 168.344 1738.1 175.213C1738.1 182.137 1739.2 187.981 1741.42 192.745C1743.66 197.509 1746.72 201.11 1750.6 203.547C1754.48 205.984 1758.84 207.203 1763.69 207.203C1766.38 207.203 1768.92 206.843 1771.33 206.123C1773.77 205.375 1775.97 204.281 1777.94 202.841C1779.91 201.4 1781.57 199.642 1782.92 197.564C1784.31 195.459 1785.26 193.05 1785.79 190.335L1798.75 190.377C1798.06 194.559 1796.72 198.409 1794.72 201.927C1792.76 205.416 1790.22 208.435 1787.12 210.984C1784.05 213.504 1780.53 215.457 1776.57 216.842C1772.61 218.226 1768.29 218.919 1763.61 218.919C1756.24 218.919 1749.67 217.174 1743.91 213.684C1738.15 210.167 1733.61 205.139 1730.29 198.603C1726.99 192.066 1725.34 184.27 1725.34 175.213C1725.34 166.128 1727 158.331 1730.33 151.822C1733.65 145.286 1738.19 140.273 1743.95 136.783C1749.72 133.265 1756.27 131.506 1763.61 131.506C1768.12 131.506 1772.33 132.157 1776.24 133.459C1780.17 134.733 1783.7 136.616 1786.83 139.109C1789.96 141.574 1792.55 144.593 1794.6 148.166C1796.65 151.711 1798.03 155.769 1798.75 160.339Z" fill="#747474"></path>
<path d="M1685.41 132.668V217.754H1673.62L1630.37 155.352H1629.58V217.754H1616.74V132.668H1628.62L1671.91 195.153H1672.7V132.668H1685.41Z" fill="#747474"></path>
<path d="M1604.24 175.213C1604.24 184.297 1602.58 192.108 1599.26 198.644C1595.93 205.153 1591.38 210.166 1585.59 213.684C1579.83 217.174 1573.28 218.919 1565.94 218.919C1558.57 218.919 1551.99 217.174 1546.2 213.684C1540.44 210.166 1535.9 205.139 1532.58 198.603C1529.25 192.066 1527.59 184.27 1527.59 175.213C1527.59 166.128 1529.25 158.331 1532.58 151.822C1535.9 145.286 1540.44 140.272 1546.2 136.783C1551.99 133.265 1558.57 131.506 1565.94 131.506C1573.28 131.506 1579.83 133.265 1585.59 136.783C1591.38 140.272 1595.93 145.286 1599.26 151.822C1602.58 158.331 1604.24 166.128 1604.24 175.213ZM1591.53 175.213C1591.53 168.288 1590.41 162.458 1588.16 157.722C1585.95 152.958 1582.9 149.357 1579.02 146.92C1575.17 144.455 1570.81 143.222 1565.94 143.222C1561.04 143.222 1556.66 144.455 1552.81 146.92C1548.96 149.357 1545.91 152.958 1543.67 157.722C1541.45 162.458 1540.35 168.288 1540.35 175.213C1540.35 182.137 1541.45 187.981 1543.67 192.745C1545.91 197.481 1548.96 201.082 1552.81 203.547C1556.66 205.984 1561.04 207.203 1565.94 207.203C1570.81 207.203 1575.17 205.984 1579.02 203.547C1582.9 201.082 1585.95 197.481 1588.16 192.745C1590.41 187.981 1591.53 182.137 1591.53 175.213ZM1560.79 124.153L1570.51 105H1583.59L1570.72 124.153H1560.79Z" fill="#747474"></path>
<path d="M1515.15 132.668V217.754H1502.31V132.668H1515.15Z" fill="#747474"></path>
<path d="M1490.46 160.339H1477.49C1477 157.569 1476.07 155.132 1474.71 153.027C1473.35 150.922 1471.69 149.136 1469.73 147.668C1467.76 146.2 1465.56 145.092 1463.12 144.344C1460.71 143.596 1458.15 143.222 1455.43 143.222C1450.53 143.222 1446.14 144.455 1442.26 146.92C1438.41 149.385 1435.37 152.999 1433.12 157.763C1430.91 162.527 1429.8 168.344 1429.8 175.213C1429.8 182.137 1430.91 187.981 1433.12 192.745C1435.37 197.509 1438.43 201.11 1442.31 203.547C1446.18 205.984 1450.55 207.203 1455.39 207.203C1458.08 207.203 1460.63 206.843 1463.04 206.123C1465.47 205.375 1467.68 204.281 1469.64 202.841C1471.61 201.4 1473.27 199.642 1474.63 197.564C1476.01 195.459 1476.97 193.05 1477.49 190.335L1490.46 190.377C1489.76 194.559 1488.42 198.409 1486.43 201.927C1484.46 205.416 1481.93 208.435 1478.82 210.984C1475.75 213.504 1472.23 215.457 1468.27 216.842C1464.31 218.226 1459.99 218.919 1455.31 218.919C1447.94 218.919 1441.38 217.174 1435.62 213.684C1429.86 210.167 1425.31 205.139 1421.99 198.603C1418.69 192.066 1417.05 184.27 1417.05 175.213C1417.05 166.128 1418.71 158.331 1422.03 151.822C1425.35 145.286 1429.9 140.273 1435.66 136.783C1441.42 133.265 1447.97 131.506 1455.31 131.506C1459.82 131.506 1464.03 132.157 1467.94 133.459C1471.87 134.733 1475.4 136.616 1478.53 139.109C1481.66 141.574 1484.25 144.593 1486.3 148.166C1488.35 151.711 1489.74 155.769 1490.46 160.339Z" fill="#747474"></path>
<path d="M1352.57 217.754H1338.94L1369.56 132.668H1384.39L1415.01 217.754H1401.38L1377.33 148.123H1376.66L1352.57 217.754ZM1354.85 184.434H1399.06V195.236H1354.85V184.434Z" fill="#747474"></path>
<path d="M1296.23 217.754H1268.68V132.668H1297.1C1305.44 132.668 1312.6 134.371 1318.58 137.778C1324.56 141.157 1329.15 146.018 1332.33 152.361C1335.54 158.676 1337.15 166.251 1337.15 175.086C1337.15 183.949 1335.53 191.566 1332.29 197.937C1329.08 204.307 1324.42 209.209 1318.33 212.644C1312.24 216.051 1304.87 217.754 1296.23 217.754ZM1281.52 206.537H1295.52C1302 206.537 1307.39 205.318 1311.68 202.88C1315.98 200.415 1319.19 196.856 1321.32 192.203C1323.45 187.522 1324.52 181.817 1324.52 175.086C1324.52 168.411 1323.45 162.747 1321.32 158.094C1319.22 153.441 1316.07 149.909 1311.89 147.5C1307.71 145.09 1302.52 143.885 1296.31 143.885H1281.52V206.537Z" fill="#747474"></path>
<path d="M1253.47 132.668V217.754H1241.67L1198.42 155.352H1197.63V217.754H1184.79V132.668H1196.67L1239.96 195.153H1240.75V132.668H1253.47Z" fill="#747474"></path>
<path d="M1156.76 132.668H1169.64V188.63C1169.64 194.585 1168.24 199.861 1165.44 204.459C1162.64 209.029 1158.71 212.63 1153.64 215.261C1148.57 217.865 1142.63 219.166 1135.82 219.166C1129.03 219.166 1123.1 217.865 1118.04 215.261C1112.97 212.63 1109.03 209.029 1106.24 204.459C1103.44 199.861 1102.04 194.585 1102.04 188.63V132.668H1114.88V187.592C1114.88 191.442 1115.72 194.862 1117.41 197.853C1119.13 200.845 1121.55 203.199 1124.68 204.916C1127.81 206.606 1131.52 207.451 1135.82 207.451C1140.14 207.451 1143.86 206.606 1146.99 204.916C1150.15 203.199 1152.56 200.845 1154.22 197.853C1155.91 194.862 1156.76 191.442 1156.76 187.592V132.668Z" fill="#747474"></path>
<path d="M1037 217.754V132.668H1089.76V143.719H1049.84V169.644H1085.98V180.653H1049.84V217.754H1037Z" fill="#747474"></path>
<path d="M526 617.5L545.217 684.295L563.659 748.212L563.663 748.226C568.505 765.28 577.453 801.251 585.599 817.002C595.375 835.91 596.624 837.551 606.018 848.181C610.642 853.415 610.419 852.648 614.365 857.475C615.776 859.204 620.203 864.723 621.924 868.896C623.249 872.096 622.919 874.862 621.611 876.476C619.896 878.586 615.101 881.186 608.782 883.54C595.852 888.364 576.276 893.142 570.334 894.842L570.271 894.86C563.062 896.778 557.603 898.579 553.703 898.928C549.758 899.275 546.967 898.288 545.038 895.975C543.878 894.588 542.986 892.586 542.57 889.704C542.103 886.459 542.205 881.793 542.892 875.292C544.589 859.344 549.613 843.079 546.293 827.071C543.853 815.437 539.852 803.403 536.4 791.958L536.396 791.944L520.759 739.147L520.753 739.126L505 684.295L526 617.5Z" fill="url(#paint0_linear_2014_311)"></path>
<path d="M585.112 426.108C582.033 421.096 577.378 418.871 572.211 417.132C575.207 412.505 577.509 407.011 580.421 402.413C589.872 387.48 605.256 375.576 623.063 372.917C641.115 370.224 663.355 377.623 678.039 388.086C680.144 389.585 682.009 391.467 683.744 393.356C699.997 413.686 697.96 434.279 688.41 457.194C684.749 465.976 677.616 479.443 685.753 487.947C715.721 519.29 738.603 459.609 739.172 436.886C743.118 385.147 711.42 345.479 662.118 332.696C660.206 332.222 658.175 331.562 656.206 331.284C618.801 324.197 586.891 331.886 559.541 359.072C549.13 369.429 536.775 390.702 532.408 405.889C529.451 405.263 527.09 404.931 525.174 404.94C522.265 404.955 520.118 405.677 518.377 407.008C516.754 408.245 515.451 410.097 514.386 412.797C513.178 415.856 512.195 420.245 510.812 426.272C510.65 426.958 510.509 427.651 510.375 428.345C510.076 429.892 510.803 431.45 512.179 432.206C516.392 434.545 521.2 436.815 524.453 440.425C523.49 445.916 520.867 454.176 519.411 459.153L510.157 490.799L476.754 605.425C476.731 605.502 476.707 605.585 476.692 605.664L453.817 684.295L435.375 748.212L435.371 748.226C430.529 765.28 421.582 801.251 413.435 817.002C403.659 835.91 402.411 837.551 393.016 848.181C388.392 853.415 388.615 852.648 384.669 857.475C383.258 859.204 378.831 864.723 377.11 868.896C375.785 872.096 376.115 874.862 377.423 876.476C379.138 878.586 383.934 881.186 390.253 883.54C403.182 888.364 422.758 893.142 428.7 894.842L428.763 894.86C435.973 896.778 441.431 898.579 445.331 898.928C449.276 899.275 452.067 898.288 453.996 895.975C455.156 894.588 456.049 892.586 456.464 889.704C456.932 886.459 456.83 881.793 456.142 875.292C454.445 859.344 449.421 843.079 452.741 827.071C455.181 815.437 459.182 803.403 462.634 791.958L462.638 791.944L478.275 739.147L478.281 739.126L514.928 612.91L540.366 524.822L554.39 476.577C556.135 470.581 559.635 457.515 562.342 451.072C567.19 450.378 570.976 450.508 576.167 450.686L576.542 450.699C578.098 450.759 579.516 449.81 580.071 448.345C582.031 443.092 585.067 433.984 585.627 428.368C585.705 427.581 585.527 426.788 585.112 426.108Z" fill="url(#paint1_linear_2014_311)"></path>
<path d="M458.668 524.822L444.644 476.577C442.899 470.581 439.399 457.515 436.692 451.072C431.844 450.378 428.058 450.508 422.867 450.686L422.492 450.699C420.937 450.759 419.518 449.81 418.964 448.345C417.004 443.092 413.967 433.984 413.407 428.368C413.329 427.581 413.507 426.788 413.922 426.108C417.001 421.096 421.656 418.871 426.823 417.132C423.827 412.505 421.525 407.011 418.614 402.413C409.163 387.48 393.778 375.576 375.971 372.917C357.919 370.224 335.68 377.623 320.995 388.086C318.89 389.585 317.025 391.467 315.29 393.356C299.037 413.686 301.075 434.279 310.625 457.194C314.285 465.976 321.418 479.443 313.281 487.947C283.313 519.29 260.431 459.609 259.862 436.886C255.917 385.147 287.614 345.479 336.916 332.696C338.828 332.222 340.859 331.562 342.828 331.284C380.233 324.197 412.143 331.886 439.493 359.072C449.904 369.429 462.259 390.702 466.626 405.889C469.583 405.263 471.944 404.931 473.861 404.94C476.77 404.955 478.916 405.677 480.657 407.008C482.28 408.245 483.583 410.097 484.649 412.797C485.857 415.856 486.839 420.245 488.222 426.272C488.384 426.958 488.525 427.651 488.659 428.345C488.958 429.892 488.231 431.45 486.856 432.206C482.642 434.545 477.834 436.815 474.581 440.425C475.544 445.916 478.167 454.176 479.623 459.153L488.878 490.799L495 511L473.928 578L458.668 524.822Z" fill="url(#paint2_linear_2014_311)"></path>
<path d="M249.623 255.124C275.949 251.181 320.882 257.753 343.408 272.665C358.908 282.929 368.236 295.019 374.159 308.254C362.832 307.726 351.149 308.648 339.159 310.89C337.172 311.203 335.447 311.63 334.304 311.928C332.385 312.428 332.622 312.394 331.631 312.64L331.515 312.669L331.396 312.7C272.966 327.85 233.33 376.209 237.888 439.303C238.178 447.674 240.281 457.621 243.309 466.953C246.449 476.63 251.123 487.321 257.432 496.477C263.337 505.047 272.993 515.632 287.189 519.071C292.314 520.312 297.272 520.468 302.001 519.745C302 519.93 302 520.116 302 520.302C302 547.876 306.704 574.249 315.283 598.513C272.494 621.467 228.505 637.541 173.432 630.345C151.394 627.252 132.209 619.364 115.414 604.156C68.4473 561.217 41.9007 499.115 17.333 441.828C2.5033 407.252 -12.902 372.914 17.5107 341.114C68.1759 288.147 178.685 260.662 249.623 255.124Z" fill="url(#paint3_linear_2014_311)"></path>
<path d="M324.177 621C345.388 665.18 380.12 700.383 422.361 720.042L415.622 743.403L415.593 743.506C412.91 752.957 409.819 764.97 405.927 778.169C402.016 791.434 398.254 802.432 395.279 808.185L395.278 808.188C390.284 817.848 388.057 821.912 386.108 824.865C384.369 827.499 382.701 829.489 377.916 834.904L377.914 834.905C375.92 837.162 375.099 837.99 374.046 839.095C372.619 840.593 371.319 842.029 369.023 844.839L369.016 844.848L369.008 844.859C368.385 845.622 365.128 849.532 362.092 854.366C311.906 873.639 251.335 876.841 187.833 872.355C146.347 871.715 95.6113 864.304 89.0625 815.243C81.4255 758.057 95.1446 689.627 127.761 642.113C192.171 669.747 262.847 652.953 322.602 621.826C323.128 621.552 323.653 621.276 324.177 621Z" fill="url(#paint4_linear_2014_311)"></path>
<path d="M492.014 0.357654C565.196 -7.31825 635.833 110.475 661.321 169.53C670.634 191.11 678.116 213.464 686.389 235.408C658.191 241.2 632.758 257.495 615.561 280.394C607.952 290.526 603.194 301.28 600.021 312.35C592.955 314.353 586.063 317.038 579.358 320.444C555.389 309.219 528.991 303.002 501.265 303.002C473.512 303.002 447.09 309.23 423.103 320.475C416.379 317.055 409.467 314.361 402.381 312.352C399.611 302.936 395.639 293.65 389.67 284.621C372.151 258.121 346.651 242.505 316 235.675C320.617 224.77 325.908 207.23 330.584 195.05C342.085 164.762 356.39 135.613 373.317 107.991C399.511 65.5524 440.917 12.4491 492.014 0.357654Z" fill="url(#paint5_linear_2014_311)"></path>
<path d="M718.162 255.21C781.902 244.707 1039.01 303.173 997.705 407.568C970.321 476.753 927.399 587.084 858.576 622.325C800.706 644.483 739.097 626.55 686.203 599.057C694.883 574.67 699.646 548.142 699.646 520.398C699.646 520.218 699.644 520.038 699.644 519.858C704.334 520.559 709.247 520.397 714.325 519.167C728.52 515.728 738.177 505.143 744.082 496.573C750.39 487.418 755.064 476.725 758.205 467.049C761.232 457.717 763.336 447.77 763.626 439.399C768.184 376.305 728.548 327.946 670.118 312.796L670 312.765L669.883 312.736C668.893 312.491 669.128 312.524 667.21 312.024C666.067 311.726 664.342 311.299 662.355 310.986C650.24 308.721 638.438 307.802 627 308.366C630.04 301.521 634.042 294.956 639.415 288.776C659.985 265.119 688.163 257.904 718.162 255.21Z" fill="url(#paint6_linear_2014_311)"></path>
<path d="M677.26 621C689.06 627.092 700.762 632.545 714.091 637.817C765.027 657.965 822.444 664.125 873.77 641.823C897.63 678.339 907.788 715.038 913.443 758.205C916.67 782.926 916.099 825.87 899.389 845.817C881.747 866.864 847.117 869.647 821.418 871.951C761.817 875.61 695.914 877.414 639.822 855.193C636.638 849.944 633.003 845.581 632.341 844.77L632.333 844.76L632.326 844.75C630.028 841.939 628.73 840.504 627.303 839.006C626.25 837.901 625.43 837.074 623.434 834.816L623.433 834.815C618.648 829.4 616.98 827.41 615.239 824.776C613.29 821.823 611.065 817.76 606.071 808.1L606.07 808.096C603.094 802.343 599.332 791.346 595.421 778.08C591.529 764.88 588.438 752.868 585.755 743.417L585.726 743.314L579 720.008C621.266 700.372 656.025 665.179 677.26 621Z" fill="url(#paint7_linear_2014_311)"></path>
<defs>
<linearGradient id="paint0_linear_2014_311" x1="563.885" y1="617.5" x2="563.885" y2="898.996" gradientUnits="userSpaceOnUse">
<stop offset="0.355799" stop-color="#7DB3A6"></stop>
<stop offset="1" stop-color="#518A86"></stop>
</linearGradient>
<linearGradient id="paint1_linear_2014_311" x1="557.884" y1="328.796" x2="557.884" y2="898.995" gradientUnits="userSpaceOnUse">
<stop offset="0.355799" stop-color="#7DB3A6"></stop>
<stop offset="1" stop-color="#518A86"></stop>
</linearGradient>
<linearGradient id="paint2_linear_2014_311" x1="377.266" y1="328.796" x2="377.266" y2="578" gradientUnits="userSpaceOnUse">
<stop offset="0.355799" stop-color="#7DB3A6"></stop>
<stop offset="1" stop-color="#518A86"></stop>
</linearGradient>
<linearGradient id="paint3_linear_2014_311" x1="163.5" y1="201" x2="57.9106" y2="588.612" gradientUnits="userSpaceOnUse">
<stop offset="0.019553" stop-color="#CFBACE"></stop>
<stop offset="0.519231" stop-color="#9E739B"></stop>
<stop offset="0.519331" stop-color="#B38EB1"></stop>
<stop offset="1" stop-color="#9E739B"></stop>
</linearGradient>
<linearGradient id="paint4_linear_2014_311" x1="164.5" y1="601" x2="337.78" y2="862.952" gradientUnits="userSpaceOnUse">
<stop stop-color="#AA83A8"></stop>
<stop offset="0.519231" stop-color="#9E739B"></stop>
<stop offset="0.519331" stop-color="#B38EB1"></stop>
<stop offset="1" stop-color="#9E739B"></stop>
</linearGradient>
<linearGradient id="paint5_linear_2014_311" x1="350" y1="141" x2="636.643" y2="139.099" gradientUnits="userSpaceOnUse">
<stop stop-color="#CFBACE"></stop>
<stop offset="0.519231" stop-color="#9E739B"></stop>
<stop offset="0.519331" stop-color="#B38EB1"></stop>
<stop offset="1" stop-color="#CFBACE"></stop>
</linearGradient>
<linearGradient id="paint6_linear_2014_311" x1="759" y1="212.5" x2="864.5" y2="615" gradientUnits="userSpaceOnUse">
<stop stop-color="#CFBACE"></stop>
<stop offset="0.519231" stop-color="#9E739B"></stop>
<stop offset="0.519331" stop-color="#B38EB1"></stop>
<stop offset="1" stop-color="#9E739B"></stop>
</linearGradient>
<linearGradient id="paint7_linear_2014_311" x1="780" y1="525" x2="575.765" y2="854.404" gradientUnits="userSpaceOnUse">
<stop stop-color="#B38EB1"></stop>
<stop offset="0.519231" stop-color="#9E739B"></stop>
<stop offset="0.519331" stop-color="#B38EB1"></stop>
<stop offset="1" stop-color="#9E739B"></stop>
</linearGradient>
</defs>
</svg>